<svg xmlns="http://www.w3.org/2000/svg" viewBox="0 0 819 1182">
  <path d="M387 99.105c-43.22 7.581-72.494 50.786-97.5 143.895-18.929 70.482-50.986 172.224-68.798 218.346-22.557 58.412-63.968 135.622-102.834 191.732C110.791 663.296 105 674.521 105 678.023c0 3.501 6.075 17.883 13.5 31.96 18.524 35.117 18.355 44.71-1.5 85.312-18.379 37.583-19.296 48.392-5.25 61.915 10.732 10.331 48.934 29.708 64.228 32.578 8.987 1.686 10.011 3.107 13.514 18.768 2.308 10.317 3.506 33.232 3.062 58.588-.805 46.037.865 51.782 17.569 60.42 11.67 6.034 55.501 16.994 68.06 17.018 12.932.024 36.007-11.272 48.228-23.61 8.049-8.127 11.43-9.643 18-8.075 12.211 2.914 14.133 5.332 24.831 31.242 5.435 13.165 12.367 26.603 15.403 29.862 7.261 7.794 19.471 10.648 29.444 6.884 7.722-2.915 13.995-7.137 54.847-36.918 23.245-16.945 49.405-32.967 53.827-32.967 1.85 0 15.656 12.054 30.679 26.787 15.216 14.922 31.01 27.714 35.658 28.881 12.718 3.192 22.472-3.005 29.799-18.934 6.061-13.176 6.549-18.874 6.574-76.682.03-69.991-1.822-65.283 21.892-55.655 8.429 3.422 11.049 3.343 18-.541 11.65-6.512 12.524-24.867 2.418-50.789-20.264-51.98-22.868-83.525-11.644-141.067 4.966-25.461 5.009-25.538 28.418-50.692C707.716 647.424 717 633.668 717 624.24c0-2.661-6.865-12.241-15.255-21.289-44.961-48.486-78.932-103.289-106.896-172.451-11.448-28.312-29.983-83.1-62.924-186-18.039-56.352-41.599-102.09-62.86-122.035-19.69-18.471-54.099-28.266-82.065-23.36m51.624 16.181c25.608 12.151 49.484 44.081 67.459 90.214 8.271 21.227 28.926 83.298 37.437 112.5 10.495 36.015 45.006 127.152 59.926 158.258 19.777 41.233 55.979 97.009 76.863 118.423 7.606 7.799 13.236 14.667 12.51 15.261-.725.595-10.094 5.134-20.819 10.088-10.725 4.953-28.572 15.889-39.661 24.3l-20.161 15.295-3.072-11.063c-1.69-6.084-3.08-13.193-3.089-15.798-.024-6.603-19.547-66.833-23.877-73.662-3.168-4.995-3.355-4.789-1.724 1.898 22.853 93.71 27.95 136.737 32.159 271.5 5.562 178.086 4.495 206.002-8.369 218.865-9.029 9.03-16.308 4.899-52.21-29.624-27.642-26.581-40.206-36.407-56.061-43.847-48.831-22.913-58.492-28.31-76.15-42.539-12.831-10.339-22.286-15.53-30.228-16.595-6.356-.852-11.557-3.161-11.557-5.13 0-7.103 14.599-45.749 28.381-75.13 19.934-42.495 27.846-68.734 31.885-105.743 3.712-34.019 1.991-113.933-3.279-152.257-4.361-31.709-15.686-85.5-18.001-85.5-1.123 0-.365 13.163 1.685 29.25 7.321 57.442 10.695 104.924 10.606 149.25-.152 75.539-6.305 105.378-33.496 162.46-20.416 42.858-30.24 73.601-30.809 96.418-.434 17.371-.951 18.736-6.472 17.102-34.198-10.127-51.407-11.568-90.522-7.58-21.609 2.204-41.644 3.103-44.521 1.998-11.253-4.318.448-36.595 31.886-87.958C261.754 845.465 267 835.75 267 834.352c0-1.399 2.707-5.984 6.015-10.19 8.555-10.876 30.891-68.057 38.344-98.162 8.489-34.29 9.344-40.737 10.948-82.5 1.264-32.939 1.125-34.214-1.633-15-13.609 94.794-32.198 148.14-81.767 234.654-16.047 28.005-18.726 28.623-62.671 14.442-35.819-11.558-54.837-22.341-62.041-35.176-4.129-7.355-3.734-9.195 6.087-28.393 5.776-11.29 23.987-46.852 40.469-79.027 29.776-58.128 63.309-145.894 60.485-158.312-.691-3.039-3.11 1.027-5.839 9.812-7.473 24.056-35.074 91.528-42.613 104.172l-6.917 11.598-4.701-7.174c-2.585-3.946-6.76-12.104-9.277-18.128-2.764-6.615-7.907-12.386-12.983-14.569-4.623-1.988-8.861-3.908-9.417-4.267-.555-.359 4.986-9.873 12.314-21.143C207.156 536.487 247.425 439.191 292.451 273c14.425-53.243 26.946-90.123 38.581-113.633 10.995-22.22 32.594-43.26 49.208-47.935 15.29-4.303 45.381-2.317 58.384 3.854m-74.124 87.74c-3.3.872-10.387 4.891-15.75 8.932-8.876 6.689-9.75 8.79-9.75 23.449 0 21.529 1.641 24.797 15.925 31.697 22.626 10.932 31.142 7.69 43.718-16.645 10.256-19.842 10.965-29.29 2.884-38.416-7.173-8.101-24.515-12.324-37.027-9.017m69.469 4.372c-10.853 6.308-16.98 31.561-12.087 49.818 1.956 7.299 18.171 18.784 26.519 18.784 9.418 0 24.277-8.952 29.481-17.761 9.851-16.676 3.395-45.621-11.432-51.258-10.149-3.859-25.464-3.662-32.481.417m210.736 511.651c-2.487 7.315-3.929 27.705-3.993 56.451-.091 41.496.556 46.949 8.314 70.031 4.627 13.767 7.976 25.324 7.443 25.682-.533.358-8.056.102-16.719-.57L624 869.421l-.301-42.461c-.165-23.353-1.177-55.855-2.25-72.226l-1.949-29.766 13.464-9.77c7.405-5.373 13.952-9.282 14.549-8.685.597.597-.667 6.238-2.808 12.536" fill-rule="evenodd"/>
</svg>
