<?xml version="1.0" standalone="no"?>
   <!DOCTYPE svg PUBLIC "-//W3C//DTD SVG 1.1//EN" 
   "http://www.w3.org/Graphics/SVG/1.1/DTD/svg11.dtd"><svg id="svg" version="1.1" width="819" height="1182" xmlns="http://www.w3.org/2000/svg"><path d="M387.000 99.105 C 343.780 106.686,314.506 149.891,289.500 243.000 C 270.571 313.482,238.514 415.224,220.702 461.346 C 198.145 519.758,156.734 596.968,117.868 653.078 C 110.791 663.296,105.000 674.521,105.000 678.023 C 105.000 681.524,111.075 695.906,118.500 709.983 C 137.024 745.100,136.855 754.693,117.000 795.295 C 98.621 832.878,97.704 843.687,111.750 857.210 C 122.482 867.541,160.684 886.918,175.978 889.788 C 184.965 891.474,185.989 892.895,189.492 908.556 C 191.800 918.873,192.998 941.788,192.554 967.144 C 191.749 1013.181,193.419 1018.926,210.123 1027.564 C 221.793 1033.598,265.624 1044.558,278.183 1044.582 C 291.115 1044.606,314.190 1033.310,326.411 1020.972 C 334.460 1012.845,337.841 1011.329,344.411 1012.897 C 356.622 1015.811,358.544 1018.229,369.242 1044.139 C 374.677 1057.304,381.609 1070.742,384.645 1074.001 C 391.906 1081.795,404.116 1084.649,414.089 1080.885 C 421.811 1077.970,428.084 1073.748,468.936 1043.967 C 492.181 1027.022,518.341 1011.000,522.763 1011.000 C 524.613 1011.000,538.419 1023.054,553.442 1037.787 C 568.658 1052.709,584.452 1065.501,589.100 1066.668 C 601.818 1069.860,611.572 1063.663,618.899 1047.734 C 624.960 1034.558,625.448 1028.860,625.473 971.052 C 625.503 901.061,623.651 905.769,647.365 915.397 C 655.794 918.819,658.414 918.740,665.365 914.856 C 677.015 908.344,677.889 889.989,667.783 864.067 C 647.519 812.087,644.915 780.542,656.139 723.000 C 661.105 697.539,661.148 697.462,684.557 672.308 C 707.716 647.424,717.000 633.668,717.000 624.240 C 717.000 621.579,710.135 611.999,701.745 602.951 C 656.784 554.465,622.813 499.662,594.849 430.500 C 583.401 402.188,564.866 347.400,531.925 244.500 C 513.886 188.148,490.326 142.410,469.065 122.465 C 449.375 103.994,414.966 94.199,387.000 99.105 M438.624 115.286 C 464.232 127.437,488.108 159.367,506.083 205.500 C 514.354 226.727,535.009 288.798,543.520 318.000 C 554.015 354.015,588.526 445.152,603.446 476.258 C 623.223 517.491,659.425 573.267,680.309 594.681 C 687.915 602.480,693.545 609.348,692.819 609.942 C 692.094 610.537,682.725 615.076,672.000 620.030 C 661.275 624.983,643.428 635.919,632.339 644.330 L 612.178 659.625 609.106 648.562 C 607.416 642.478,606.026 635.369,606.017 632.764 C 605.993 626.161,586.470 565.931,582.140 559.102 C 578.972 554.107,578.785 554.313,580.416 561.000 C 603.269 654.710,608.366 697.737,612.575 832.500 C 618.137 1010.586,617.070 1038.502,604.206 1051.365 C 595.177 1060.395,587.898 1056.264,551.996 1021.741 C 524.354 995.160,511.790 985.334,495.935 977.894 C 447.104 954.981,437.443 949.584,419.785 935.355 C 406.954 925.016,397.499 919.825,389.557 918.760 C 383.201 917.908,378.000 915.599,378.000 913.630 C 378.000 906.527,392.599 867.881,406.381 838.500 C 426.315 796.005,434.227 769.766,438.266 732.757 C 441.978 698.738,440.257 618.824,434.987 580.500 C 430.626 548.791,419.301 495.000,416.986 495.000 C 415.863 495.000,416.621 508.163,418.671 524.250 C 425.992 581.692,429.366 629.174,429.277 673.500 C 429.125 749.039,422.972 778.878,395.781 835.960 C 375.365 878.818,365.541 909.561,364.972 932.378 C 364.538 949.749,364.021 951.114,358.500 949.480 C 324.302 939.353,307.093 937.912,267.978 941.900 C 246.369 944.104,226.334 945.003,223.457 943.898 C 212.204 939.580,223.905 907.303,255.343 855.940 C 261.754 845.465,267.000 835.750,267.000 834.352 C 267.000 832.953,269.707 828.368,273.015 824.162 C 281.570 813.286,303.906 756.105,311.359 726.000 C 319.848 691.710,320.703 685.263,322.307 643.500 C 323.571 610.561,323.432 609.286,320.674 628.500 C 307.065 723.294,288.476 776.640,238.907 863.154 C 222.860 891.159,220.181 891.777,176.236 877.596 C 140.417 866.038,121.399 855.255,114.195 842.420 C 110.066 835.065,110.461 833.225,120.282 814.027 C 126.058 802.737,144.269 767.175,160.751 735.000 C 190.527 676.872,224.060 589.106,221.236 576.688 C 220.545 573.649,218.126 577.715,215.397 586.500 C 207.924 610.556,180.323 678.028,172.784 690.672 L 165.867 702.270 161.166 695.096 C 158.581 691.150,154.406 682.992,151.889 676.968 C 149.125 670.353,143.982 664.582,138.906 662.399 C 134.283 660.411,130.045 658.491,129.489 658.132 C 128.934 657.773,134.475 648.259,141.803 636.989 C 207.156 536.487,247.425 439.191,292.451 273.000 C 306.876 219.757,319.397 182.877,331.032 159.367 C 342.027 137.147,363.626 116.107,380.240 111.432 C 395.530 107.129,425.621 109.115,438.624 115.286 M364.500 203.026 C 361.200 203.898,354.113 207.917,348.750 211.958 C 339.874 218.647,339.000 220.748,339.000 235.407 C 339.000 256.936,340.641 260.204,354.925 267.104 C 377.551 278.036,386.067 274.794,398.643 250.459 C 408.899 230.617,409.608 221.169,401.527 212.043 C 394.354 203.942,377.012 199.719,364.500 203.026 M433.969 207.398 C 423.116 213.706,416.989 238.959,421.882 257.216 C 423.838 264.515,440.053 276.000,448.401 276.000 C 457.819 276.000,472.678 267.048,477.882 258.239 C 487.733 241.563,481.277 212.618,466.450 206.981 C 456.301 203.122,440.986 203.319,433.969 207.398 M644.705 719.049 C 642.218 726.364,640.776 746.754,640.712 775.500 C 640.621 816.996,641.268 822.449,649.026 845.531 C 653.653 859.298,657.002 870.855,656.469 871.213 C 655.936 871.571,648.413 871.315,639.750 870.643 L 624.000 869.421 623.699 826.960 C 623.534 803.607,622.522 771.105,621.449 754.734 L 619.500 724.968 632.964 715.198 C 640.369 709.825,646.916 705.916,647.513 706.513 C 648.110 707.110,646.846 712.751,644.705 719.049 " stroke="none" fill="black" fill-rule="evenodd"/></svg>